<svg xmlns="http://www.w3.org/2000/svg" version="1.1" xmlns:xlink="http://www.w3.org/1999/xlink" xmlns:svgjs="http://svgjs.dev/svgjs" viewBox="0 0 1422 800"><defs><filter id="uuunion-blur" x="-100%" y="-100%" width="400%" height="400%" color-interpolation-filters="sRGB">
        <feGaussianBlur in="SourceGraphic" stdDeviation="0 0" result="blur"></feGaussianBlur>
        <feDropShadow stdDeviation="0" in="blur" dx="0" dy="0" flood-color="#261144" flood-opacity="0" x="0%" y="0%" width="100%" height="100%"></feDropShadow>
      </filter><filter id="uuunion-blur2" x="-100%" y="-100%" width="400%" height="400%" color-interpolation-filters="sRGB">
        <feGaussianBlur in="SourceGraphic" stdDeviation="0 0" result="blur"></feGaussianBlur>
        <feDropShadow stdDeviation="0" in="blur" dx="-0" dy="-0" flood-color="#261144" flood-opacity="0" x="0%" y="0%" width="100%" height="100%"></feDropShadow>
      </filter><linearGradient gradientTransform="rotate(0, 0.5, 0.5)" x1="50%" y1="0%" x2="50%" y2="100%" id="uuunion-grad"><stop stop-color="#571a47" offset="10%"></stop><stop stop-color="#261144" offset="90%"></stop></linearGradient><linearGradient gradientTransform="rotate(135, 0.5, 0.5)" x1="50%" y1="0%" x2="50%" y2="100%" id="uuunion-grad2"><stop stop-color="#571a47" offset="25%"></stop><stop stop-color="#261144" offset="100%"></stop></linearGradient><linearGradient gradientTransform="rotate(333, 0.5, 0.5)" x1="50%" y1="0%" x2="50%" y2="100%" id="uuunion-grad3"><stop stop-color="#571a47" offset="0%"></stop><stop stop-color="#261144" offset="75%"></stop></linearGradient></defs><path d="M-142.62 -86.96Q-129.29 -85.02 -115.95 -82.85 -102.62 -80.56 -89.28 -78.24 -75.95 -76 -62.61 -73.94 -49.27 -72.14 -35.94 -70.7 -22.6 -69.67 -9.27 -69.1 4.06 -69.02 17.39 -69.43 30.73 -70.31 44.07 -71.62 57.4 -73.31 70.74 -75.29 84.07 -77.48 97.41 -79.79 110.75 -82.1 124.08 -84.32 137.42 -86.35 150.75 -88.09 164.09 -89.48 177.42 -90.44 190.76 -90.93 204.1 -90.94 217.43 -90.45 230.77 -89.51 244.1 -88.13 257.44 -86.4 270.77 -84.38 284.11 -82.16 297.45 -79.85 310.78 -77.54 324.12 -75.34 337.45 -73.35 350.79 -71.66 364.13 -70.34 377.46 -69.45 390.8 -69.03 404.13 -69.1 417.47 -69.65 430.8 -70.67 444.14 -72.1 457.48 -73.89 470.81 -75.94 484.15 -78.18 497.48 -80.5 510.82 -82.8 524.16 -84.97 537.49 -86.92 550.83 -88.56 564.16 -89.82 577.5 -90.64 590.83 -90.98 604.17 -90.84 617.51 -90.21 630.84 -89.13 644.18 -87.64 657.51 -85.8 670.85 -83.71 684.19 -81.45 697.52 -79.13 710.86 -76.85 724.19 -74.7 737.53 -72.8 750.86 -71.21 764.2 -70.02 777.54 -69.27 790.87 -69 804.21 -69.22 817.54 -69.92 830.88 -71.07 844.22 -72.62 857.55 -74.49 870.89 -76.62 884.22 -78.89 897.56 -81.21 910.9 -83.48 924.23 -85.6 937.57 -87.46 950.9 -88.99 964.24 -90.12 977.57 -90.8 990.91 -90.99 1004.25 -90.7 1017.58 -89.92 1030.92 -88.71 1044.25 -87.11 1057.59 -85.18 1070.93 -83.03 1084.26 -80.74 1097.6 -78.42 1110.93 -76.17 1124.27 -74.09 1137.6 -72.27 1150.94 -70.8 1164.28 -69.74 1177.61 -69.13 1190.95 -69.01 1204.28 -69.38 1217.62 -70.22 1230.96 -71.5 1244.29 -73.16 1257.63 -75.12 1270.96 -77.3 1284.3 -79.6 1297.64 -81.92 1310.97 -84.15 1324.31 -86.2 1337.64 -87.97 1350.98 -89.38 1364.32 -90.38 1377.65 -90.91 1390.99 -90.95 1404.32 -90.51 1417.66 -89.6 1430.99 -88.26 1444.33 -86.55 1457.67 -84.54 1471 -82.34 1484.34 -80.03 1497.67 -77.72 1511.01 -75.51 1524.35 -73.5 1537.68 -71.78 1551.02 -70.43 1564.35 -69.5 1564.61 -54.68 1564.75 -39.86 1564.73 -25.04 1564.57 -10.22 1564.3 4.6 1564 19.42 1563.75 34.24 1563.63 49.06 1563.67 63.88 1563.86 78.7 1564.14 93.52 1564.43 108.34 1564.66 123.16 1564.76 137.99 1564.7 152.81 1564.5 167.63 1564.21 182.45 1563.92 197.27 1563.71 212.09 1563.63 226.91 1563.71 241.73 1563.93 256.55 1564.22 271.38 1564.5 286.2 1564.7 301.02 1564.76 315.84 1564.66 330.66 1564.43 345.48 1564.13 360.3 1563.85 375.12 1563.67 389.94 1563.63 404.77 1563.76 419.59 1564 434.41 1564.3 449.23 1564.57 464.05 1564.73 478.87 1564.75 493.69 1564.61 508.51 1564.35 523.33 1564.05 538.16 1563.79 552.98 1563.64 567.8 1563.65 582.62 1563.81 597.44 1564.08 612.26 1564.38 627.08 1564.63 641.9 1564.75 656.72 1564.72 671.55 1564.55 686.37 1564.27 701.19 1563.97 716.01 1563.74 730.83 1563.63 745.65 1563.68 760.47 1563.88 775.29 1564.16 790.11 1564.45 804.94 1564.68 819.76 1564.76 834.58 1564.69 849.4 1564.48 864.22 1564.19 879.04 1550.86 879.13 1537.53 879.25 1524.19 879.4 1510.86 879.59 1497.53 879.79 1484.2 880 1470.87 880.21 1457.54 880.41 1444.21 880.59 1430.88 880.75 1417.55 880.87 1404.22 880.95 1390.88 880.99 1377.55 880.99 1364.22 880.94 1350.89 880.85 1337.56 880.72 1324.23 880.56 1310.9 880.37 1297.57 880.17 1284.24 879.96 1270.91 879.75 1257.57 879.55 1244.24 879.37 1230.91 879.22 1217.58 879.11 1204.25 879.03 1190.92 879 1177.59 879.01 1164.26 879.06 1150.93 879.16 1137.6 879.29 1124.26 879.46 1110.93 879.65 1097.6 879.85 1084.27 880.06 1070.94 880.27 1057.61 880.47 1044.28 880.64 1030.95 880.79 1017.62 880.9 1004.29 880.97 990.95 880.99 977.62 880.98 964.29 880.92 950.96 880.81 937.63 880.67 924.3 880.5 910.97 880.31 897.64 880.11 884.31 879.89 870.98 879.69 857.64 879.49 844.31 879.32 830.98 879.18 817.65 879.08 804.32 879.02 790.99 879 777.66 879.02 764.33 879.09 751 879.2 737.67 879.34 724.33 879.51 711 879.71 697.67 879.92 684.34 880.13 671.01 880.33 657.68 880.52 644.35 880.69 631.02 880.83 617.69 880.92 604.36 880.98 591.03 880.99 577.69 880.96 564.36 880.89 551.03 880.77 537.7 880.62 524.37 880.45 511.04 880.25 497.71 880.04 484.38 879.83 471.05 879.63 457.72 879.44 444.38 879.28 431.05 879.15 417.72 879.05 404.39 879 391.06 879 377.73 879.04 364.4 879.12 351.07 879.24 337.74 879.39 324.41 879.57 311.08 879.77 297.74 879.98 284.41 880.19 271.08 880.39 257.75 880.58 244.42 880.73 231.09 880.86 217.76 880.95 204.43 880.99 191.1 880.99 177.77 880.94 164.44 880.86 151.1 880.73 137.77 880.57 124.44 880.39 111.11 880.19 97.78 879.98 84.45 879.77 71.12 879.57 57.79 879.39 44.46 879.23 31.13 879.11 17.8 879.03 4.46 879 -8.86 879 -22.19 879.06 -35.52 879.15 -48.85 879.28 -62.18 879.44 -75.51 879.63 -88.84 879.84 -102.17 880.05 -115.5 880.25 -128.83 880.45 -142.17 880.63 -142.97 865.51 -143.55 850.39 -143.75 835.27 -143.51 820.15 -142.9 805.03 -142.09 789.92 -141.31 774.8 -140.77 759.68 -140.63 744.56 -140.92 729.44 -141.57 714.32 -142.39 699.2 -143.16 684.08 -143.65 668.97 -143.73 653.85 -143.38 638.73 -142.69 623.61 -141.87 608.49 -141.13 593.37 -140.69 578.25 -140.66 563.13 -141.07 548.02 -141.79 532.9 -142.62 517.78 -143.32 502.66 -143.71 487.54 -143.67 472.42 -143.22 457.3 -142.47 442.18 -141.65 427.06 -140.97 411.95 -140.64 396.83 -140.73 381.71 -141.24 366.59 -142.01 351.47 -142.83 336.35 -143.47 321.23 -143.75 306.11 -143.59 291 -143.04 275.88 -142.25 260.76 -141.44 245.64 -140.84 230.52 -140.62 215.4 -140.84 200.28 -141.43 185.16 -142.24 170.05 -143.03 154.93 -143.58 139.81 -143.75 124.69 -143.47 109.57 -142.84 94.45 -142.02 79.33 -141.25 64.21 -140.74 49.09 -140.63 33.98 -140.96 18.86 -141.64 3.74 -142.46 -11.37 -143.21 -26.49 -143.67 -41.61 -143.72 -56.73 -143.33 -71.85 -142.62 -86.96" fill="url(#uuunion-grad)"></path><path d="M-142.63 -86.97Q-143.34 -71.85 -143.73 -56.73 -143.68 -41.61 -143.22 -26.49 -142.47 -11.37 -141.65 3.74 -140.97 18.86 -140.64 33.97 -140.75 49.09 -141.26 64.21 -142.03 79.33 -142.85 94.45 -143.48 109.57 -143.76 124.69 -143.59 139.81 -143.04 154.93 -142.25 170.04 -141.44 185.16 -140.85 200.28 -140.63 215.4 -140.85 230.52 -141.45 245.64 -142.26 260.76 -143.05 275.88 -143.6 290.99 -143.76 306.11 -143.48 321.23 -142.84 336.35 -142.02 351.47 -141.25 366.59 -140.74 381.71 -140.65 396.83 -131.77 397.4 -122.89 398.03 -114.02 398.69 -105.14 399.39 -96.26 400.09 -87.39 400.79 -78.51 401.48 -69.63 402.13 -60.76 402.75 -51.88 403.31 -43 403.8 -34.13 404.22 -25.25 404.55 -16.37 404.8 0.39 404.98 3.36 404.99 14.45 401.8 25.53 398.45 36.59 394.96 47.63 391.32 58.66 387.55 69.68 383.67 80.68 379.71 91.67 375.69 102.66 371.63 113.63 367.56 124.6 363.52 135.56 359.53 146.52 355.62 157.48 351.81 168.44 348.14 179.41 344.61 190.38 341.24 201.35 338.05 212.33 335.04 223.32 332.2 234.31 329.53 245.32 327.01 256.34 324.64 267.37 322.39 278.42 320.23 289.47 318.13 300.54 316.07 311.63 314 322.72 311.9 333.83 309.74 344.95 307.48 356.08 305.09 367.22 302.56 378.37 299.85 389.53 296.96 400.7 293.88 411.87 290.59 423.05 287.11 434.23 283.44 445.41 279.6 456.6 275.61 467.78 271.49 478.97 267.28 490.15 262.99 501.33 258.68 512.5 254.38 523.67 250.12 534.83 245.94 545.98 241.88 557.13 237.96 568.27 234.21 579.4 230.66 590.52 227.31 601.64 224.18 612.74 221.27 623.84 218.58 634.93 216.09 646.01 213.79 657.08 211.65 668.15 209.65 679.21 207.74 690.26 205.9 701.32 204.09 712.37 202.25 723.41 200.36 734.46 198.38 745.5 196.26 756.54 193.98 767.58 191.5 778.63 188.81 789.68 185.89 800.73 182.73 811.78 179.32 822.83 175.68 833.9 171.83 844.96 167.76 856.03 163.53 867.1 159.16 878.18 154.68 889.27 150.14 900.36 145.59 911.45 141.06 922.55 136.6 933.65 132.25 944.75 128.05 955.86 124.04 966.97 120.25 978.08 116.69 989.19 113.39 1000.3 110.35 1011.42 107.58 1022.53 105.05 1033.64 102.77 1044.75 100.69 1055.86 98.8 1066.97 97.06 1078.07 95.42 1089.17 93.83 1100.27 92.26 1111.37 90.65 1122.46 88.95 1133.55 87.13 1144.63 85.13 1155.72 82.93 1166.8 80.49 1177.88 77.78 1188.95 74.8 1200.03 71.53 1211.1 67.98 1222.18 64.16 1233.25 60.09 1244.33 55.79 1255.41 51.3 1266.49 46.67 1277.57 41.93 1288.65 37.13 1299.74 32.34 1310.83 27.59 1321.93 22.94 1333.03 18.45 1344.13 14.14 1355.24 10.07 1366.36 6.25 1377.48 2.73 1388.6 -0.49 1399.73 -3.41 1410.86 -6.03 1422 -8.36 1422.22 -26.04 1422.36 -43.72 1422.37 -61.41 1422.23 -79.09 1422 -96.77 1421.77 -114.46 1421.63 -132.14 1421.62 -149.82 1409.32 -150.89 1397.03 -151.53 1384.73 -151.74 1372.43 -151.51 1360.13 -150.83 1347.84 -149.74 1335.54 -148.28 1323.24 -146.51 1310.94 -144.49 1298.64 -142.29 1286.35 -140.01 1274.05 -137.73 1261.75 -135.53 1249.45 -133.51 1237.16 -131.73 1224.86 -130.26 1212.56 -129.17 1200.26 -128.49 1187.97 -128.25 1175.67 -128.45 1163.37 -129.09 1151.07 -130.15 1138.77 -131.59 1126.48 -133.34 1114.18 -135.35 1101.88 -137.53 1089.58 -139.81 1077.29 -142.09 1064.99 -144.3 1052.69 -146.34 1040.39 -148.14 1028.09 -149.63 1015.8 -150.75 1003.5 -151.47 991.2 -151.74 978.9 -151.57 966.61 -150.96 954.31 -149.93 942.01 -148.52 929.71 -146.79 917.41 -144.8 905.12 -142.63 892.82 -140.35 880.52 -138.07 868.22 -135.85 855.93 -133.8 843.63 -131.97 831.33 -130.46 819.03 -129.31 806.74 -128.56 794.44 -128.25 782.14 -128.39 769.84 -128.97 757.54 -129.97 745.25 -131.35 732.95 -133.06 720.65 -135.03 708.35 -137.2 696.06 -139.47 683.76 -141.75 671.46 -143.98 659.16 -146.05 646.86 -147.89 634.57 -149.43 622.27 -150.61 609.97 -151.39 597.67 -151.73 585.38 -151.63 573.08 -151.08 560.78 -150.11 548.48 -148.76 536.18 -147.07 523.89 -145.11 511.59 -142.96 499.29 -140.7 486.99 -138.41 474.7 -136.17 462.4 -134.09 450.1 -132.23 437.8 -130.66 425.51 -129.46 413.21 -128.65 400.91 -128.27 388.61 -128.34 376.31 -128.86 364.02 -129.79 351.72 -131.12 339.42 -132.79 327.12 -134.72 314.83 -136.86 302.53 -139.12 290.23 -141.41 277.93 -143.65 265.63 -145.75 253.34 -147.63 241.04 -149.22 228.74 -150.46 216.44 -151.3 204.15 -151.71 191.85 -151.67 179.55 -151.19 167.25 -150.28 154.95 -148.98 142.66 -147.34 130.36 -145.42 118.06 -143.29 105.76 -141.04 93.47 -138.75 81.17 -136.5 68.87 -134.39 56.57 -132.49 44.28 -130.88 31.98 -129.61 19.68 -128.74 7.38 -128.3 -4.91 -128.3 -17.2 -128.75 -29.5 -129.63 -41.8 -130.9 -54.1 -132.52 -66.39 -134.42 -78.69 -136.53 -90.99 -138.78 -103.29 -141.07 -115.59 -143.32 -127.88 -145.45 -144.85 -140.43 -146.98 -117.99 -144.75 -102.48 -142.63 -86.97" fill="url(#uuunion-grad2)" filter="url(#uuunion-blur)"></path><path d="M1422.35 314.98Q1431.25 315.49 1440.14 316.09 1449.04 316.77 1457.94 317.51 1466.84 318.31 1475.73 319.13 1484.63 319.98 1493.53 320.82 1502.43 321.65 1511.32 322.44 1520.22 323.19 1529.12 323.87 1538.02 324.48 1546.91 324.99 1555.81 325.41 1564.71 325.72 1564.47 343.01 1564.13 360.3 1563.81 377.59 1563.64 394.88 1563.68 412.18 1563.91 429.47 1564.25 446.76 1564.57 464.05 1564.75 481.34 1564.72 498.63 1564.49 515.92 1564.15 533.22 1563.83 550.51 1563.64 567.8 1563.67 585.09 1563.89 602.38 1564.23 619.67 1564.55 636.96 1564.74 654.25 1564.72 671.55 1564.51 688.84 1564.17 706.13 1563.84 723.42 1563.65 740.71 1563.66 758 1563.88 775.29 1564.21 792.58 1564.54 809.88 1564.74 827.17 1564.73 844.46 1564.52 861.75 1564.19 879.04 1551.96 879.12 1539.73 879.23 1527.5 879.36 1515.28 879.52 1503.05 879.7 1490.82 879.89 1478.59 880.09 1466.36 880.28 1454.14 880.46 1441.91 880.62 1429.68 880.76 1417.45 880.87 1405.22 880.95 1393 880.99 1380.77 880.99 1368.54 880.96 1356.31 880.89 1344.09 880.79 1331.86 880.65 1319.63 880.5 1307.4 880.32 1295.17 880.13 1282.95 879.94 1270.72 879.75 1258.49 879.57 1246.26 879.4 1234.03 879.26 1221.81 879.14 1209.58 879.06 1197.35 879.01 1185.12 879 1172.89 879.02 1160.67 879.08 1148.44 879.18 1136.21 879.31 1123.98 879.46 1111.75 879.64 1099.53 879.82 1087.3 880.01 1075.07 880.21 1062.84 880.39 1050.61 880.56 1038.39 880.71 1026.16 880.83 1013.93 880.92 1001.7 880.98 989.48 880.99 977.25 880.98 965.02 880.92 952.79 880.83 940.56 880.71 928.34 880.56 916.11 880.39 903.88 880.2 891.65 880.01 879.42 879.82 867.2 879.63 854.97 879.46 842.74 879.31 830.51 879.18 818.28 879.08 806.06 879.02 793.83 879 781.6 879.01 769.37 879.06 757.14 879.14 744.92 879.26 732.69 879.4 720.46 879.57 708.23 879.75 696 879.94 683.78 880.14 671.55 880.32 659.32 880.5 647.09 880.66 634.87 880.79 622.64 880.89 610.41 880.96 598.18 880.99 585.95 880.99 573.73 880.94 561.5 880.87 549.27 880.76 537.04 880.62 524.81 880.45 512.59 880.27 500.36 880.08 488.13 879.89 475.9 879.7 463.67 879.52 451.45 879.36 439.22 879.22 426.99 879.11 414.76 879.04 402.53 879 390.31 879 378.08 879.03 365.85 879.11 353.62 879.21 341.39 879.35 329.17 879.5 316.94 879.68 304.71 879.87 292.48 880.06 280.26 880.26 268.03 880.44 255.8 880.6 243.57 880.74 231.34 880.86 219.12 880.94 206.89 880.98 194.66 880.99 182.43 880.96 170.2 880.9 157.98 880.8 145.75 880.67 133.52 880.52 121.29 880.34 109.06 880.15 96.84 879.96 84.61 879.77 72.38 879.59 60.15 879.42 47.92 879.27 35.7 879.15 23.47 879.06 4.88 874.07 -1.89 859.25 -2.21 849.37 -2.37 839.5 -2.36 829.62 -2.17 819.75 -1.37 804.93 -0.4 800 12.39 793.82 25.2 787.64 37.98 781.44 50.74 775.21 63.45 768.96 76.11 762.67 88.72 756.34 101.25 749.98 113.73 743.6 126.15 737.18 138.51 730.75 150.82 724.32 163.1 717.89 175.36 711.47 187.6 705.09 199.84 698.75 212.1 692.45 224.39 686.22 236.71 680.04 249.07 673.94 261.49 667.89 273.96 661.91 286.47 655.98 299.04 650.09 311.66 644.22 324.31 638.37 336.99 632.51 349.69 626.63 362.4 620.7 375.1 614.71 387.8 608.65 400.47 602.49 413.11 596.23 425.72 589.87 438.29 583.4 450.82 576.83 463.3 570.16 475.75 563.41 488.16 556.6 500.54 549.74 512.9 542.86 525.24 535.98 537.58 529.14 549.93 522.35 562.28 515.65 574.65 509.06 587.04 502.59 599.46 496.26 611.91 490.08 624.39 484.06 636.91 478.18 649.45 472.45 662.01 466.83 674.6 461.32 687.2 455.89 699.81 450.5 712.43 445.12 725.03 439.72 737.64 434.25 750.22 428.69 762.79 423.01 775.34 417.17 787.87 411.16 800.38 404.95 810.09 403.56 819.8 402.05 829.5 400.43 839.21 398.7 848.92 396.89 858.62 395 868.33 393.04 878.03 391.04 887.73 389 897.44 386.96 907.14 384.92 916.84 382.92 926.55 380.95 936.25 379.05 945.96 377.23 955.66 375.5 965.36 373.87 975.07 372.36 984.77 370.96 994.48 369.7 1004.18 368.56 1013.89 367.54 1023.6 366.64 1033.3 365.86 1043.01 365.18 1052.72 364.58 1062.43 364.06 1072.14 363.59 1081.85 363.16 1091.57 362.76 1101.28 362.34 1111 361.91 1120.71 361.44 1130.43 360.91 1140.15 360.3 1149.86 359.59 1159.58 358.78 1169.31 357.86 1179.03 356.8 1188.75 355.62 1198.48 354.3 1208.2 352.85 1217.93 351.27 1227.66 349.57 1237.38 347.76 1247.11 345.84 1256.84 343.85 1266.57 341.79 1276.31 339.68 1286.04 337.54 1295.77 335.4 1305.51 333.28 1315.24 331.19 1324.98 329.15 1334.71 327.2 1344.45 325.33 1354.19 323.57 1363.92 321.94 1373.66 320.43 1383.4 319.06 1393.14 317.83 1402.87 316.75 1412.61 315.8 1422.35 314.98" fill="url(#uuunion-grad3)" filter="url(#uuunion-blur2)"></path></svg>